solid pc-bracket
facet normal -1.0 0.0 0.0
  outer loop
    vertex -25.5 0.599999 14.499999999999998
    vertex -25.5 -0.599999 5.5
    vertex -25.5 -0.599999 14.499999999999998
  endloop
endfacet
facet normal -1.0 0.0 0.0
  outer loop
    vertex -25.5 -0.599999 5.5
    vertex -25.5 0.599999 14.499999999999998
    vertex -25.5 0.599999 5.5
  endloop
endfacet
facet normal 0.0 -1.0 0.0
  outer loop
    vertex 89.6163 -0.599999 3.34416
    vertex -13.9289 -0.599999 0.49999999999999994
    vertex 86.2267 -0.599999 0.49999999999999994
  endloop
endfacet
facet normal 0.0 -1.0 0.0
  outer loop
    vertex -13.9289 -0.599999 0.49999999999999994
    vertex 89.6163 -0.599999 3.34416
    vertex -17.999999999999996 -0.599999 4.57107
  endloop
endfacet
facet normal 0.0 -1.0 0.0
  outer loop
    vertex 93.39999999999999 -0.599999 21.75
    vertex 89.6953 -0.599999 3.2499999999999996
    vertex 93.39999999999999 -0.599999 3.2499999999999996
  endloop
endfacet
facet normal 0.0 -1.0 0.0
  outer loop
    vertex 89.6953 -0.599999 3.2499999999999996
    vertex 93.39999999999999 -0.599999 21.75
    vertex 89.6163 -0.599999 3.34416
  endloop
endfacet
facet normal 0.0 -1.0 0.0
  outer loop
    vertex 89.6163 -0.599999 3.34416
    vertex 93.39999999999999 -0.599999 21.75
    vertex 86.5 -0.599999 19.0
  endloop
endfacet
facet normal 0.0 -1.0 0.0
  outer loop
    vertex 89.6163 -0.599999 3.34416
    vertex 86.5 -0.599999 19.0
    vertex 86.3837 -0.599999 18.9558
  endloop
endfacet
facet normal 0.0 -1.0 0.0
  outer loop
    vertex 89.6163 -0.599999 3.34416
    vertex 86.3837 -0.599999 18.9558
    vertex -17.999999999999996 -0.599999 4.57107
  endloop
endfacet
facet normal 0.0 -1.0 0.0
  outer loop
    vertex -17.999999999999996 -0.599999 4.57107
    vertex 86.3837 -0.599999 18.9558
    vertex -17.999999999999996 -0.599999 5.5
  endloop
endfacet
facet normal 0.0 -1.0 0.0
  outer loop
    vertex -17.999999999999996 -0.599999 5.5
    vertex 86.3837 -0.599999 18.9558
    vertex -25.5 -0.599999 5.5
  endloop
endfacet
facet normal 0.0 -1.0 0.0
  outer loop
    vertex -25.5 -0.599999 5.5
    vertex 86.3837 -0.599999 18.9558
    vertex -17.999999999999996 -0.599999 14.499999999999998
  endloop
endfacet
facet normal 0.0 -1.0 0.0
  outer loop
    vertex -17.999999999999996 -0.599999 14.499999999999998
    vertex 86.3837 -0.599999 18.9558
    vertex -17.999999999999996 -0.599999 15.4289
  endloop
endfacet
facet normal 0.0 -1.0 0.0
  outer loop
    vertex 86.5 -0.599999 19.0
    vertex 93.39999999999999 -0.599999 21.75
    vertex 86.5 -0.599999 19.053399999999996
  endloop
endfacet
facet normal 0.0 -1.0 0.0
  outer loop
    vertex 86.5 -0.599999 19.053399999999996
    vertex 93.39999999999999 -0.599999 21.75
    vertex 89.7137 -0.599999 21.75
  endloop
endfacet
facet normal 0.0 -1.0 0.0
  outer loop
    vertex 86.43629999999999 -0.599999 19.0
    vertex 86.3837 -0.599999 18.9558
    vertex 86.5 -0.599999 19.0
  endloop
endfacet
facet normal 0.0 -1.0 0.0
  outer loop
    vertex 86.3837 -0.599999 18.9558
    vertex -14.428899999999999 -0.599999 19.0
    vertex -17.999999999999996 -0.599999 15.4289
  endloop
endfacet
facet normal 0.0 -1.0 0.0
  outer loop
    vertex -14.428899999999999 -0.599999 19.0
    vertex 86.3837 -0.599999 18.9558
    vertex 86.34669999999998 -0.599999 19.0
  endloop
endfacet
facet normal 0.0 -1.0 0.0
  outer loop
    vertex -25.5 -0.599999 14.499999999999998
    vertex -25.5 -0.599999 5.5
    vertex -17.999999999999996 -0.599999 14.499999999999998
  endloop
endfacet
facet normal -0.0 1.0 -0.0
  outer loop
    vertex -17.999999999999996 0.599999 4.57107
    vertex 86.2267 0.599999 0.49999999999999994
    vertex -13.9289 0.599999 0.49999999999999994
  endloop
endfacet
facet normal -0.0 1.0 -0.0
  outer loop
    vertex 86.2267 0.599999 0.49999999999999994
    vertex -17.999999999999996 0.599999 4.57107
    vertex 89.6163 0.599999 3.34416
  endloop
endfacet
facet normal -0.0 1.0 -0.0
  outer loop
    vertex -25.5 0.599999 14.499999999999998
    vertex -17.999999999999996 0.599999 5.5
    vertex -25.5 0.599999 5.5
  endloop
endfacet
facet normal -0.0 1.0 -0.0
  outer loop
    vertex -14.428899999999999 0.599999 19.0
    vertex 86.3837 0.599999 18.9558
    vertex -17.999999999999996 0.599999 15.4289
  endloop
endfacet
facet normal -0.0 1.0 -0.0
  outer loop
    vertex 86.3837 0.599999 18.9558
    vertex -14.428899999999999 0.599999 19.0
    vertex 86.34669999999998 0.599999 19.0
  endloop
endfacet
facet normal -0.0 1.0 -0.0
  outer loop
    vertex 89.6163 0.599999 3.34416
    vertex 94.60000000000002 0.599999 3.2499999999999996
    vertex 89.6953 0.599999 3.2499999999999996
  endloop
endfacet
facet normal -0.0 1.0 -0.0
  outer loop
    vertex 94.60000000000002 0.599999 3.2499999999999996
    vertex 89.6163 0.599999 3.34416
    vertex 94.60000000000002 0.599999 21.75
  endloop
endfacet
facet normal -0.0 1.0 -0.0
  outer loop
    vertex 94.60000000000002 0.599999 21.75
    vertex 89.6163 0.599999 3.34416
    vertex 86.3837 0.599999 18.9558
  endloop
endfacet
facet normal -0.0 1.0 -0.0
  outer loop
    vertex 86.3837 0.599999 18.9558
    vertex 89.6163 0.599999 3.34416
    vertex -17.999999999999996 0.599999 4.57107
  endloop
endfacet
facet normal -0.0 1.0 -0.0
  outer loop
    vertex 86.3837 0.599999 18.9558
    vertex -17.999999999999996 0.599999 4.57107
    vertex -17.999999999999996 0.599999 5.5
  endloop
endfacet
facet normal -0.0 1.0 -0.0
  outer loop
    vertex 86.3837 0.599999 18.9558
    vertex -17.999999999999996 0.599999 5.5
    vertex -17.999999999999996 0.599999 14.499999999999998
  endloop
endfacet
facet normal -0.0 1.0 -0.0
  outer loop
    vertex -17.999999999999996 0.599999 14.499999999999998
    vertex -17.999999999999996 0.599999 5.5
    vertex -25.5 0.599999 14.499999999999998
  endloop
endfacet
facet normal -0.0 1.0 -0.0
  outer loop
    vertex 86.3837 0.599999 18.9558
    vertex -17.999999999999996 0.599999 14.499999999999998
    vertex -17.999999999999996 0.599999 15.4289
  endloop
endfacet
facet normal -0.0 1.0 -0.0
  outer loop
    vertex 94.60000000000002 0.599999 21.75
    vertex 86.3837 0.599999 18.9558
    vertex 86.5 0.599999 19.0
  endloop
endfacet
facet normal -0.0 1.0 -0.0
  outer loop
    vertex 86.5 0.599999 19.0
    vertex 86.3837 0.599999 18.9558
    vertex 86.43629999999999 0.599999 19.0
  endloop
endfacet
facet normal -0.0 1.0 -0.0
  outer loop
    vertex 94.60000000000002 0.599999 21.75
    vertex 86.5 0.599999 19.0
    vertex 86.5 0.599999 19.053399999999996
  endloop
endfacet
facet normal -0.0 1.0 -0.0
  outer loop
    vertex 94.60000000000002 0.599999 21.75
    vertex 86.5 0.599999 19.053399999999996
    vertex 89.7137 0.599999 21.75
  endloop
endfacet
facet normal 0.0 0.0 -1.0
  outer loop
    vertex 86.2267 0.599999 0.49999999999999994
    vertex -13.9289 -0.599999 0.49999999999999994
    vertex -13.9289 0.599999 0.49999999999999994
  endloop
endfacet
facet normal 0.0 0.0 -1.0
  outer loop
    vertex -13.9289 -0.599999 0.49999999999999994
    vertex 86.2267 0.599999 0.49999999999999994
    vertex 86.2267 -0.599999 0.49999999999999994
  endloop
endfacet
facet normal -0.0 -0.0 1.0
  outer loop
    vertex 86.5 -0.599999 19.0
    vertex 86.43629999999999 0.599999 19.0
    vertex 86.43629999999999 -0.599999 19.0
  endloop
endfacet
facet normal -0.0 -0.0 1.0
  outer loop
    vertex 86.43629999999999 0.599999 19.0
    vertex 86.5 -0.599999 19.0
    vertex 86.5 0.599999 19.0
  endloop
endfacet
facet normal -0.0 -0.0 1.0
  outer loop
    vertex 86.34669999999998 -0.599999 19.0
    vertex -14.428899999999999 0.599999 19.0
    vertex -14.428899999999999 -0.599999 19.0
  endloop
endfacet
facet normal -0.0 -0.0 1.0
  outer loop
    vertex -14.428899999999999 0.599999 19.0
    vertex 86.34669999999998 -0.599999 19.0
    vertex 86.34669999999998 0.599999 19.0
  endloop
endfacet
facet normal -1.0 0.0 0.0
  outer loop
    vertex 86.5 0.599999 19.053399999999996
    vertex 86.5 -0.599999 19.0
    vertex 86.5 -0.599999 19.053399999999996
  endloop
endfacet
facet normal -1.0 0.0 0.0
  outer loop
    vertex 86.5 -0.599999 19.0
    vertex 86.5 0.599999 19.053399999999996
    vertex 86.5 0.599999 19.0
  endloop
endfacet
facet normal 0.0 0.0 -1.0
  outer loop
    vertex 94.60000000000002 0.599999 3.2499999999999996
    vertex 89.6953 -0.599999 3.2499999999999996
    vertex 89.6953 0.599999 3.2499999999999996
  endloop
endfacet
facet normal 0.0 0.0 -1.0
  outer loop
    vertex 89.6953 -0.599999 3.2499999999999996
    vertex 94.60000000000002 0.599999 3.2499999999999996
    vertex 93.39999999999999 -0.599999 3.2499999999999996
  endloop
endfacet
facet normal 0.0 0.0 -1.0
  outer loop
    vertex 93.39999999999999 -0.599999 3.2499999999999996
    vertex 94.60000000000002 0.599999 3.2499999999999996
    vertex 93.39999999999999 -11.499999999999998 3.2499999999999996
  endloop
endfacet
facet normal 0.0 0.0 -1.0
  outer loop
    vertex 93.39999999999999 -11.499999999999998 3.2499999999999996
    vertex 94.60000000000002 0.599999 3.2499999999999996
    vertex 94.60000000000002 -11.499999999999998 3.2499999999999996
  endloop
endfacet
facet normal -0.0 -0.0 1.0
  outer loop
    vertex 94.60000000000002 -11.499999999999998 21.75
    vertex 93.39999999999999 -7.499999999999999 21.75
    vertex 93.39999999999999 -11.499999999999998 21.75
  endloop
endfacet
facet normal -0.0 -0.0 1.0
  outer loop
    vertex 93.39999999999999 -7.499999999999999 21.75
    vertex 94.60000000000002 -11.499999999999998 21.75
    vertex 94.60000000000002 -7.499999999999999 21.75
  endloop
endfacet
facet normal -0.0 -0.0 1.0
  outer loop
    vertex 94.60000000000002 -3.5 21.75
    vertex 93.39999999999999 -0.599999 21.75
    vertex 93.39999999999999 -3.5 21.75
  endloop
endfacet
facet normal -0.0 -0.0 1.0
  outer loop
    vertex 93.39999999999999 -0.599999 21.75
    vertex 89.7137 0.599999 21.75
    vertex 89.7137 -0.599999 21.75
  endloop
endfacet
facet normal -0.0 -0.0 1.0
  outer loop
    vertex 89.7137 0.599999 21.75
    vertex 93.39999999999999 -0.599999 21.75
    vertex 94.60000000000002 0.599999 21.75
  endloop
endfacet
facet normal -0.0 -0.0 1.0
  outer loop
    vertex 94.60000000000002 0.599999 21.75
    vertex 93.39999999999999 -0.599999 21.75
    vertex 94.60000000000002 -3.5 21.75
  endloop
endfacet
facet normal -0.766082986320786 0.0 -0.6427416728903038
  outer loop
    vertex 89.6953 0.599999 3.2499999999999996
    vertex 89.6953 -0.599999 3.2499999999999996
    vertex 89.6163 0.599999 3.34416
  endloop
endfacet
facet normal 0.7667973879552958 -0.0 0.6418892161618978
  outer loop
    vertex 86.3837 0.599999 18.9558
    vertex 86.34669999999998 -0.599999 19.0
    vertex 86.3837 -0.599999 18.9558
  endloop
endfacet
facet normal 0.7667973879552958 -0.0 0.6418892161618978
  outer loop
    vertex 86.34669999999998 -0.599999 19.0
    vertex 86.3837 0.599999 18.9558
    vertex 86.34669999999998 0.599999 19.0
  endloop
endfacet
facet normal -0.6433286141527803 -0.0 0.7655901607337069
  outer loop
    vertex 86.43629999999999 -0.599999 19.0
    vertex 86.3837 0.599999 18.9558
    vertex 86.3837 -0.599999 18.9558
  endloop
endfacet
facet normal -0.6433286141527803 -0.0 0.7655901607337069
  outer loop
    vertex 86.3837 0.599999 18.9558
    vertex 86.43629999999999 -0.599999 19.0
    vertex 86.43629999999999 0.599999 19.0
  endloop
endfacet
facet normal -0.6427855835535403 -0.0 0.766046143241864
  outer loop
    vertex 89.7137 -0.599999 21.75
    vertex 86.5 0.599999 19.053399999999996
    vertex 86.5 -0.599999 19.053399999999996
  endloop
endfacet
facet normal -0.6427855835535403 -0.0 0.766046143241864
  outer loop
    vertex 86.5 0.599999 19.053399999999996
    vertex 89.7137 -0.599999 21.75
    vertex 89.7137 0.599999 21.75
  endloop
endfacet
facet normal -0.7071041758316465 0.0 -0.7071093865318492
  outer loop
    vertex -13.9289 0.599999 0.49999999999999994
    vertex -17.999999999999996 -0.599999 4.57107
    vertex -17.999999999999996 0.599999 4.57107
  endloop
endfacet
facet normal -0.7071041758316465 0.0 -0.7071093865318492
  outer loop
    vertex -17.999999999999996 -0.599999 4.57107
    vertex -13.9289 0.599999 0.49999999999999994
    vertex -13.9289 -0.599999 0.49999999999999994
  endloop
endfacet
facet normal -0.7071067811865476 -0.0 0.7071067811865476
  outer loop
    vertex -14.428899999999999 0.599999 19.0
    vertex -17.999999999999996 -0.599999 15.4289
    vertex -14.428899999999999 -0.599999 19.0
  endloop
endfacet
facet normal -0.7071067811865476 -0.0 0.7071067811865476
  outer loop
    vertex -17.999999999999996 -0.599999 15.4289
    vertex -14.428899999999999 0.599999 19.0
    vertex -17.999999999999996 0.599999 15.4289
  endloop
endfacet
facet normal -1.0 0.0 0.0
  outer loop
    vertex -17.999999999999996 0.599999 5.5
    vertex -17.999999999999996 -0.599999 4.57107
    vertex -17.999999999999996 -0.599999 5.5
  endloop
endfacet
facet normal -1.0 0.0 0.0
  outer loop
    vertex -17.999999999999996 -0.599999 4.57107
    vertex -17.999999999999996 0.599999 5.5
    vertex -17.999999999999996 0.599999 4.57107
  endloop
endfacet
facet normal 0.0 0.0 -1.0
  outer loop
    vertex -17.999999999999996 0.599999 5.5
    vertex -25.5 -0.599999 5.5
    vertex -25.5 0.599999 5.5
  endloop
endfacet
facet normal 0.0 0.0 -1.0
  outer loop
    vertex -25.5 -0.599999 5.5
    vertex -17.999999999999996 0.599999 5.5
    vertex -17.999999999999996 -0.599999 5.5
  endloop
endfacet
facet normal -1.0 0.0 0.0
  outer loop
    vertex -17.999999999999996 0.599999 15.4289
    vertex -17.999999999999996 -0.599999 14.499999999999998
    vertex -17.999999999999996 -0.599999 15.4289
  endloop
endfacet
facet normal -1.0 0.0 0.0
  outer loop
    vertex -17.999999999999996 -0.599999 14.499999999999998
    vertex -17.999999999999996 0.599999 15.4289
    vertex -17.999999999999996 0.599999 14.499999999999998
  endloop
endfacet
facet normal -0.0 -0.0 1.0
  outer loop
    vertex -17.999999999999996 -0.599999 14.499999999999998
    vertex -25.5 0.599999 14.499999999999998
    vertex -25.5 -0.599999 14.499999999999998
  endloop
endfacet
facet normal -0.0 -0.0 1.0
  outer loop
    vertex -25.5 0.599999 14.499999999999998
    vertex -17.999999999999996 -0.599999 14.499999999999998
    vertex -17.999999999999996 0.599999 14.499999999999998
  endloop
endfacet
facet normal -1.0 -8.135720894269626e-31 -1.8794655049487408e-31
  outer loop
    vertex 93.39999999999999 -0.599999 21.75
    vertex 93.39999999999999 -3.5 17.75
    vertex 93.39999999999999 -3.5 21.75
  endloop
endfacet
facet normal -1.0 -8.135720894269626e-31 -1.8794655049487408e-31
  outer loop
    vertex 93.39999999999999 -7.499999999999999 21.75
    vertex 93.39999999999999 -11.499999999999998 3.2499999999999996
    vertex 93.39999999999999 -11.499999999999998 21.75
  endloop
endfacet
facet normal -1.0 -8.135720894269626e-31 -1.8794655049487408e-31
  outer loop
    vertex 93.39999999999999 -11.499999999999998 3.2499999999999996
    vertex 93.39999999999999 -7.499999999999999 21.75
    vertex 93.39999999999999 -7.48423 17.749299999999998
  endloop
endfacet
facet normal -1.0 -8.135720894269626e-31 -1.8794655049487408e-31
  outer loop
    vertex 93.39999999999999 -11.499999999999998 3.2499999999999996
    vertex 93.39999999999999 -7.48423 17.749299999999998
    vertex 93.39999999999999 -7.43717 17.5026
  endloop
endfacet
facet normal -1.0 -8.135720894269626e-31 -1.8794655049487408e-31
  outer loop
    vertex 93.39999999999999 -11.499999999999998 3.2499999999999996
    vertex 93.39999999999999 -7.43717 17.5026
    vertex 93.39999999999999 -7.359549999999999 17.263799999999996
  endloop
endfacet
facet normal -1.0 -8.135720894269626e-31 -1.8794655049487408e-31
  outer loop
    vertex 93.39999999999999 -11.499999999999998 3.2499999999999996
    vertex 93.39999999999999 -7.359549999999999 17.263799999999996
    vertex 93.39999999999999 -7.252609999999999 17.036499999999997
  endloop
endfacet
facet normal -1.0 -8.135720894269626e-31 -1.8794655049487408e-31
  outer loop
    vertex 93.39999999999999 -11.499999999999998 3.2499999999999996
    vertex 93.39999999999999 -7.252609999999999 17.036499999999997
    vertex 93.39999999999999 -0.599999 3.2499999999999996
  endloop
endfacet
facet normal -1.0 -8.135720894269626e-31 -1.8794655049487408e-31
  outer loop
    vertex 93.39999999999999 -0.599999 3.2499999999999996
    vertex 93.39999999999999 -7.252609999999999 17.036499999999997
    vertex 93.39999999999999 -7.118029999999999 16.824399999999997
  endloop
endfacet
facet normal -1.0 -8.135720894269626e-31 -1.8794655049487408e-31
  outer loop
    vertex 93.39999999999999 -0.599999 3.2499999999999996
    vertex 93.39999999999999 -7.118029999999999 16.824399999999997
    vertex 93.39999999999999 -6.957939999999999 16.630899999999997
  endloop
endfacet
facet normal -1.0 -8.135720894269626e-31 -1.8794655049487408e-31
  outer loop
    vertex 93.39999999999999 -0.599999 3.2499999999999996
    vertex 93.39999999999999 -6.957939999999999 16.630899999999997
    vertex 93.39999999999999 -6.774849999999999 16.459
  endloop
endfacet
facet normal -1.0 -8.135720894269626e-31 -1.8794655049487408e-31
  outer loop
    vertex 93.39999999999999 -0.599999 3.2499999999999996
    vertex 93.39999999999999 -6.774849999999999 16.459
    vertex 93.39999999999999 -6.571649999999999 16.3113
  endloop
endfacet
facet normal -1.0 -8.135720894269626e-31 -1.8794655049487408e-31
  outer loop
    vertex 93.39999999999999 -0.599999 3.2499999999999996
    vertex 93.39999999999999 -6.571649999999999 16.3113
    vertex 93.39999999999999 -6.35156 16.1903
  endloop
endfacet
facet normal -1.0 -8.135720894269626e-31 -1.8794655049487408e-31
  outer loop
    vertex 93.39999999999999 -0.599999 3.2499999999999996
    vertex 93.39999999999999 -6.35156 16.1903
    vertex 93.39999999999999 -6.11803 16.0979
  endloop
endfacet
facet normal -1.0 -8.135720894269626e-31 -1.8794655049487408e-31
  outer loop
    vertex 93.39999999999999 -0.599999 3.2499999999999996
    vertex 93.39999999999999 -6.11803 16.0979
    vertex 93.39999999999999 -5.87476 16.0354
  endloop
endfacet
facet normal -1.0 -8.135720894269626e-31 -1.8794655049487408e-31
  outer loop
    vertex 93.39999999999999 -0.599999 3.2499999999999996
    vertex 93.39999999999999 -5.87476 16.0354
    vertex 93.39999999999999 -5.625579999999999 16.0039
  endloop
endfacet
facet normal -1.0 -8.135720894269626e-31 -1.8794655049487408e-31
  outer loop
    vertex 93.39999999999999 -0.599999 3.2499999999999996
    vertex 93.39999999999999 -5.625579999999999 16.0039
    vertex 93.39999999999999 -5.374419999999999 16.0039
  endloop
endfacet
facet normal -1.0 -8.135720894269626e-31 -1.8794655049487408e-31
  outer loop
    vertex 93.39999999999999 -0.599999 3.2499999999999996
    vertex 93.39999999999999 -5.374419999999999 16.0039
    vertex 93.39999999999999 -5.125239999999999 16.0354
  endloop
endfacet
facet normal -1.0 -8.135720894269626e-31 -1.8794655049487408e-31
  outer loop
    vertex 93.39999999999999 -0.599999 3.2499999999999996
    vertex 93.39999999999999 -5.125239999999999 16.0354
    vertex 93.39999999999999 -4.88197 16.0979
  endloop
endfacet
facet normal -1.0 -8.135720894269626e-31 -1.8794655049487408e-31
  outer loop
    vertex 93.39999999999999 -0.599999 3.2499999999999996
    vertex 93.39999999999999 -4.88197 16.0979
    vertex 93.39999999999999 -4.64844 16.1903
  endloop
endfacet
facet normal -1.0 -8.135720894269626e-31 -1.8794655049487408e-31
  outer loop
    vertex 93.39999999999999 -0.599999 3.2499999999999996
    vertex 93.39999999999999 -4.64844 16.1903
    vertex 93.39999999999999 -4.42835 16.3113
  endloop
endfacet
facet normal -1.0 -8.135720894269626e-31 -1.8794655049487408e-31
  outer loop
    vertex 93.39999999999999 -0.599999 3.2499999999999996
    vertex 93.39999999999999 -4.42835 16.3113
    vertex 93.39999999999999 -4.225149999999999 16.459
  endloop
endfacet
facet normal -1.0 -8.135720894269626e-31 -1.8794655049487408e-31
  outer loop
    vertex 93.39999999999999 -0.599999 3.2499999999999996
    vertex 93.39999999999999 -4.225149999999999 16.459
    vertex 93.39999999999999 -4.042059999999999 16.630899999999997
  endloop
endfacet
facet normal -1.0 -8.135720894269626e-31 -1.8794655049487408e-31
  outer loop
    vertex 93.39999999999999 -0.599999 3.2499999999999996
    vertex 93.39999999999999 -4.042059999999999 16.630899999999997
    vertex 93.39999999999999 -3.8819699999999995 16.824399999999997
  endloop
endfacet
facet normal -1.0 -8.135720894269626e-31 -1.8794655049487408e-31
  outer loop
    vertex 93.39999999999999 -0.599999 3.2499999999999996
    vertex 93.39999999999999 -3.8819699999999995 16.824399999999997
    vertex 93.39999999999999 -3.74739 17.036499999999997
  endloop
endfacet
facet normal -1.0 -8.135720894269626e-31 -1.8794655049487408e-31
  outer loop
    vertex 93.39999999999999 -0.599999 3.2499999999999996
    vertex 93.39999999999999 -3.74739 17.036499999999997
    vertex 93.39999999999999 -3.64045 17.263799999999996
  endloop
endfacet
facet normal -1.0 -8.135720894269626e-31 -1.8794655049487408e-31
  outer loop
    vertex 93.39999999999999 -0.599999 3.2499999999999996
    vertex 93.39999999999999 -3.64045 17.263799999999996
    vertex 93.39999999999999 -3.5628299999999995 17.5026
  endloop
endfacet
facet normal -1.0 -8.135720894269626e-31 -1.8794655049487408e-31
  outer loop
    vertex 93.39999999999999 -0.599999 3.2499999999999996
    vertex 93.39999999999999 -3.5628299999999995 17.5026
    vertex 93.39999999999999 -3.5 17.75
  endloop
endfacet
facet normal -1.0 -8.135720894269626e-31 -1.8794655049487408e-31
  outer loop
    vertex 93.39999999999999 -0.599999 3.2499999999999996
    vertex 93.39999999999999 -3.5 17.75
    vertex 93.39999999999999 -0.599999 21.75
  endloop
endfacet
facet normal 0.0 -1.0 0.0
  outer loop
    vertex 94.60000000000002 -11.499999999999998 21.75
    vertex 93.39999999999999 -11.499999999999998 3.2499999999999996
    vertex 94.60000000000002 -11.499999999999998 3.2499999999999996
  endloop
endfacet
facet normal 0.0 -1.0 0.0
  outer loop
    vertex 93.39999999999999 -11.499999999999998 3.2499999999999996
    vertex 94.60000000000002 -11.499999999999998 21.75
    vertex 93.39999999999999 -11.499999999999998 21.75
  endloop
endfacet
facet normal 0.0 -1.0 0.0
  outer loop
    vertex 94.60000000000002 -3.5 21.75
    vertex 93.39999999999999 -3.5 17.75
    vertex 94.59999999999998 -3.5 17.75
  endloop
endfacet
facet normal 0.0 -1.0 0.0
  outer loop
    vertex 93.39999999999999 -3.5 17.75
    vertex 94.60000000000002 -3.5 21.75
    vertex 93.39999999999999 -3.5 21.75
  endloop
endfacet
facet normal -6.1149940973634386e-18 -0.3679143374232418 0.9298596885113458
  outer loop
    vertex 94.59999999999998 -4.64844 16.1903
    vertex 93.39999999999999 -4.64844 16.1903
    vertex 94.59999999999998 -4.88197 16.0979
  endloop
endfacet
facet normal -0.0 -0.3679143374232418 0.9298596885113458
  outer loop
    vertex 94.59999999999998 -4.88197 16.0979
    vertex 93.39999999999999 -4.64844 16.1903
    vertex 93.39999999999999 -4.88197 16.0979
  endloop
endfacet
facet normal 5.67926996975833e-18 -0.9692324011870294 0.24614742023678743
  outer loop
    vertex 93.39999999999999 -3.5 17.75
    vertex 93.39999999999999 -3.5628299999999995 17.5026
    vertex 94.59999999999998 -3.5 17.75
  endloop
endfacet
facet normal -1.1358539939516659e-17 -0.9692324011870291 0.24614742023678748
  outer loop
    vertex 94.59999999999998 -3.5 17.75
    vertex 93.39999999999999 -3.5628299999999995 17.5026
    vertex 94.59999999999998 -3.5628299999999995 17.5026
  endloop
endfacet
facet normal -0.0 -0.481767428440181 0.8762991183917368
  outer loop
    vertex 94.59999999999998 -4.42835 16.3113
    vertex 93.39999999999999 -4.42835 16.3113
    vertex 94.59999999999998 -4.64844 16.1903
  endloop
endfacet
facet normal 1.2976146197198582e-17 -0.481767428440181 0.8762991183917367
  outer loop
    vertex 94.59999999999998 -4.64844 16.1903
    vertex 93.39999999999999 -4.42835 16.3113
    vertex 93.39999999999999 -4.64844 16.1903
  endloop
endfacet
facet normal -0.0 -0.24883510693481412 0.9685458634245153
  outer loop
    vertex 94.59999999999998 -4.88197 16.0979
    vertex 93.39999999999999 -4.88197 16.0979
    vertex 94.59999999999998 -5.125239999999999 16.0354
  endloop
endfacet
facet normal -5.869580465223696e-18 -0.24883510693481417 0.9685458634245153
  outer loop
    vertex 94.59999999999998 -5.125239999999999 16.0354
    vertex 93.39999999999999 -4.88197 16.0979
    vertex 93.39999999999999 -5.125239999999999 16.0354
  endloop
endfacet
facet normal 2.952078785622259e-17 -0.7704880562905333 0.6374544337547868
  outer loop
    vertex 93.39999999999999 -3.8819699999999995 16.824399999999997
    vertex 93.39999999999999 -4.042059999999999 16.630899999999997
    vertex 94.59999999999998 -3.8819699999999995 16.824399999999997
  endloop
endfacet
facet normal 1.4760393928110468e-17 -0.7704880562905333 0.637454433754787
  outer loop
    vertex 94.59999999999998 -3.8819699999999995 16.824399999999997
    vertex 93.39999999999999 -4.042059999999999 16.630899999999997
    vertex 94.60000000000002 -4.042059999999999 16.630899999999997
  endloop
endfacet
facet normal 0.0 -0.8443689024693809 0.535762220152423
  outer loop
    vertex 93.39999999999999 -3.74739 17.036499999999997
    vertex 93.39999999999999 -3.8819699999999995 16.824399999999997
    vertex 94.59999999999998 -3.74739 17.036499999999997
  endloop
endfacet
facet normal 0.0 -0.8443689024693809 0.535762220152423
  outer loop
    vertex 94.59999999999998 -3.74739 17.036499999999997
    vertex 93.39999999999999 -3.8819699999999995 16.824399999999997
    vertex 94.59999999999998 -3.8819699999999995 16.824399999999997
  endloop
endfacet
facet normal -2.8652657005143843e-18 0.12541649273654765 0.9921041796856132
  outer loop
    vertex 94.59999999999998 -5.625579999999999 16.0039
    vertex 93.39999999999999 -5.625579999999999 16.0039
    vertex 94.59999999999998 -5.87476 16.0354
  endloop
endfacet
facet normal -0.0 0.12541649273654765 0.9921041796856132
  outer loop
    vertex 94.59999999999998 -5.87476 16.0354
    vertex 93.39999999999999 -5.625579999999999 16.0039
    vertex 93.39999999999999 -5.87476 16.0354
  endloop
endfacet
facet normal 1.196233773330776e-17 0.9510223614181476 0.3091220925179085
  outer loop
    vertex 94.59999999999998 -7.43717 17.5026
    vertex 94.59999999999998 -7.359549999999999 17.263799999999996
    vertex 93.39999999999999 -7.43717 17.5026
  endloop
endfacet
facet normal 1.1962337733307755e-17 0.9510223614181476 0.30912209251790845
  outer loop
    vertex 93.39999999999999 -7.43717 17.5026
    vertex 94.59999999999998 -7.359549999999999 17.263799999999996
    vertex 93.39999999999999 -7.359549999999999 17.263799999999996
  endloop
endfacet
facet normal 2.8652657005143843e-18 -0.12541649273654765 0.9921041796856132
  outer loop
    vertex 94.59999999999998 -5.125239999999999 16.0354
    vertex 93.39999999999999 -5.125239999999999 16.0354
    vertex 94.59999999999998 -5.374419999999999 16.0039
  endloop
endfacet
facet normal -2.8652657005143843e-18 -0.12541649273654767 0.9921041796856132
  outer loop
    vertex 94.59999999999998 -5.374419999999999 16.0039
    vertex 93.39999999999999 -5.125239999999999 16.0354
    vertex 93.39999999999999 -5.374419999999999 16.0039
  endloop
endfacet
facet normal -1.1962337733307766e-17 -0.9510223614181483 0.309122092517906
  outer loop
    vertex 93.39999999999999 -3.5628299999999995 17.5026
    vertex 93.39999999999999 -3.64045 17.263799999999996
    vertex 94.59999999999998 -3.5628299999999995 17.5026
  endloop
endfacet
facet normal 1.1962337733307766e-17 -0.9510223614181483 0.3091220925179058
  outer loop
    vertex 94.59999999999998 -3.5628299999999995 17.5026
    vertex 93.39999999999999 -3.64045 17.263799999999996
    vertex 94.59999999999998 -3.64045 17.263799999999996
  endloop
endfacet
facet normal 6.2812324075300795e-18 -0.9048565903880396 0.4257165146330731
  outer loop
    vertex 93.39999999999999 -3.64045 17.263799999999996
    vertex 93.39999999999999 -3.74739 17.036499999999997
    vertex 94.59999999999998 -3.64045 17.263799999999996
  endloop
endfacet
facet normal -6.2812324075300826e-18 -0.9048565903880396 0.42571651463307314
  outer loop
    vertex 94.59999999999998 -3.64045 17.263799999999996
    vertex 93.39999999999999 -3.74739 17.036499999999997
    vertex 94.59999999999998 -3.74739 17.036499999999997
  endloop
endfacet
facet normal -0.0 -0.0 1.0
  outer loop
    vertex 94.59999999999998 -5.374419999999999 16.0039
    vertex 93.39999999999999 -5.374419999999999 16.0039
    vertex 94.59999999999998 -5.625579999999999 16.0039
  endloop
endfacet
facet normal -0.0 -0.0 1.0
  outer loop
    vertex 94.59999999999998 -5.625579999999999 16.0039
    vertex 93.39999999999999 -5.374419999999999 16.0039
    vertex 93.39999999999999 -5.625579999999999 16.0039
  endloop
endfacet
facet normal -6.1149940973634386e-18 0.3679143374232418 0.9298596885113458
  outer loop
    vertex 94.59999999999998 -6.11803 16.0979
    vertex 93.39999999999999 -6.11803 16.0979
    vertex 94.59999999999998 -6.35156 16.1903
  endloop
endfacet
facet normal 6.114994097363437e-18 0.3679143374232417 0.9298596885113458
  outer loop
    vertex 94.59999999999998 -6.35156 16.1903
    vertex 93.39999999999999 -6.11803 16.0979
    vertex 93.39999999999999 -6.35156 16.1903
  endloop
endfacet
facet normal -6.281232407530081e-18 0.9048565903880396 0.4257165146330731
  outer loop
    vertex 94.59999999999998 -7.359549999999999 17.263799999999996
    vertex 94.59999999999998 -7.252609999999999 17.036499999999997
    vertex 93.39999999999999 -7.359549999999999 17.263799999999996
  endloop
endfacet
facet normal -1.2562464815060162e-17 0.9048565903880398 0.4257165146330731
  outer loop
    vertex 93.39999999999999 -7.359549999999999 17.263799999999996
    vertex 94.59999999999998 -7.252609999999999 17.036499999999997
    vertex 93.39999999999999 -7.252609999999999 17.036499999999997
  endloop
endfacet
facet normal -0.0 -0.5879586526716032 0.8088909832286382
  outer loop
    vertex 94.59999999999998 -4.225149999999999 16.459
    vertex 93.39999999999999 -4.225149999999999 16.459
    vertex 94.59999999999998 -4.42835 16.3113
  endloop
endfacet
facet normal -1.4051948941486508e-17 -0.5879586526716034 0.8088909832286382
  outer loop
    vertex 94.59999999999998 -4.42835 16.3113
    vertex 93.39999999999999 -4.225149999999999 16.459
    vertex 93.39999999999999 -4.42835 16.3113
  endloop
endfacet
facet normal 3.119913598833475e-17 0.684477374101707 0.7290341036898288
  outer loop
    vertex 94.59999999999998 -6.774849999999999 16.459
    vertex 93.39999999999999 -6.774849999999999 16.459
    vertex 94.59999999999998 -6.957939999999999 16.630899999999997
  endloop
endfacet
facet normal 2.3399351991251056e-17 0.6844773741017068 0.7290341036898288
  outer loop
    vertex 94.59999999999998 -6.957939999999999 16.630899999999997
    vertex 93.39999999999999 -6.774849999999999 16.459
    vertex 93.39999999999999 -6.957939999999999 16.630899999999997
  endloop
endfacet
facet normal 5.869580465223663e-18 0.2488351069348134 0.9685458634245153
  outer loop
    vertex 94.59999999999998 -5.87476 16.0354
    vertex 93.39999999999999 -5.87476 16.0354
    vertex 94.59999999999998 -6.11803 16.0979
  endloop
endfacet
facet normal -5.8695804652236604e-18 0.24883510693481337 0.9685458634245153
  outer loop
    vertex 94.59999999999998 -6.11803 16.0979
    vertex 93.39999999999999 -5.87476 16.0354
    vertex 93.39999999999999 -6.11803 16.0979
  endloop
endfacet
facet normal -0.0 0.5879586526716032 0.8088909832286382
  outer loop
    vertex 94.59999999999998 -6.571649999999999 16.3113
    vertex 93.39999999999999 -6.571649999999999 16.3113
    vertex 94.59999999999998 -6.774849999999999 16.459
  endloop
endfacet
facet normal 1.4051948941486502e-17 0.5879586526716034 0.8088909832286381
  outer loop
    vertex 94.59999999999998 -6.774849999999999 16.459
    vertex 93.39999999999999 -6.571649999999999 16.3113
    vertex 93.39999999999999 -6.774849999999999 16.459
  endloop
endfacet
facet normal -0.0 0.4817674284401824 0.8762991183917361
  outer loop
    vertex 94.59999999999998 -6.35156 16.1903
    vertex 93.39999999999999 -6.35156 16.1903
    vertex 94.59999999999998 -6.571649999999999 16.3113
  endloop
endfacet
facet normal -1.2976146197198659e-17 0.48176742844018217 0.8762991183917361
  outer loop
    vertex 94.59999999999998 -6.571649999999999 16.3113
    vertex 93.39999999999999 -6.35156 16.1903
    vertex 93.39999999999999 -6.571649999999999 16.3113
  endloop
endfacet
facet normal 0.012592744563843267 0.9691555490524107 0.24612790277672777
  outer loop
    vertex 94.59999999999998 -7.499999999999999 17.75
    vertex 94.59999999999998 -7.43717 17.5026
    vertex 93.39999999999999 -7.48423 17.749299999999998
  endloop
endfacet
facet normal 2.8942388480680715e-18 0.9822876478661894 0.1873792327060532
  outer loop
    vertex 93.39999999999999 -7.48423 17.749299999999998
    vertex 94.59999999999998 -7.43717 17.5026
    vertex 93.39999999999999 -7.43717 17.5026
  endloop
endfacet
facet normal -0.0 0.7704880562905333 0.637454433754787
  outer loop
    vertex 94.59999999999998 -7.118029999999999 16.824399999999997
    vertex 94.59999999999998 -6.957939999999999 16.630899999999997
    vertex 93.39999999999999 -7.118029999999999 16.824399999999997
  endloop
endfacet
facet normal -1.4760393928111294e-17 0.7704880562905333 0.637454433754787
  outer loop
    vertex 93.39999999999999 -7.118029999999999 16.824399999999997
    vertex 94.59999999999998 -6.957939999999999 16.630899999999997
    vertex 93.39999999999999 -6.957939999999999 16.630899999999997
  endloop
endfacet
facet normal -0.0 0.8443689024693809 0.535762220152423
  outer loop
    vertex 94.59999999999998 -7.252609999999999 17.036499999999997
    vertex 94.59999999999998 -7.118029999999999 16.824399999999997
    vertex 93.39999999999999 -7.252609999999999 17.036499999999997
  endloop
endfacet
facet normal -1.3463093722377894e-17 0.8443689024693809 0.5357622201524229
  outer loop
    vertex 93.39999999999999 -7.252609999999999 17.036499999999997
    vertex 94.59999999999998 -7.118029999999999 16.824399999999997
    vertex 93.39999999999999 -7.118029999999999 16.824399999999997
  endloop
endfacet
facet normal 3.1199135988332997e-17 -0.6844773741017067 0.729034103689829
  outer loop
    vertex 94.60000000000002 -4.042059999999999 16.630899999999997
    vertex 93.39999999999999 -4.042059999999999 16.630899999999997
    vertex 94.59999999999998 -4.225149999999999 16.459
  endloop
endfacet
facet normal -7.799783997083685e-18 -0.6844773741017068 0.7290341036898288
  outer loop
    vertex 94.59999999999998 -4.225149999999999 16.459
    vertex 93.39999999999999 -4.042059999999999 16.630899999999997
    vertex 93.39999999999999 -4.225149999999999 16.459
  endloop
endfacet
facet normal -0.0 1.0 -0.0
  outer loop
    vertex 94.60000000000002 -7.499999999999999 21.75
    vertex 94.59999999999998 -7.499999999999999 17.75
    vertex 93.39999999999999 -7.499999999999999 21.75
  endloop
endfacet
facet normal 0.013138131163263773 0.9999059228574432 0.0039414393489790875
  outer loop
    vertex 93.39999999999999 -7.499999999999999 21.75
    vertex 94.59999999999998 -7.499999999999999 17.75
    vertex 93.39999999999999 -7.48423 17.749299999999998
  endloop
endfacet
facet normal -0.766082986320786 0.0 -0.6427416728903038
  outer loop
    vertex 89.6163 0.599999 3.34416
    vertex 89.6953 -0.599999 3.2499999999999996
    vertex 89.6163 -0.599999 3.34416
  endloop
endfacet
facet normal 0.6427806987308681 0.0 -0.7660502420462102
  outer loop
    vertex 89.6163 0.599999 3.34416
    vertex 86.2267 -0.599999 0.49999999999999994
    vertex 86.2267 0.599999 0.49999999999999994
  endloop
endfacet
facet normal 0.6427806987308681 0.0 -0.7660502420462102
  outer loop
    vertex 86.2267 -0.599999 0.49999999999999994
    vertex 89.6163 0.599999 3.34416
    vertex 89.6163 -0.599999 3.34416
  endloop
endfacet
facet normal 1.0 -2.0536180069693617e-15 6.766919193950716e-16
  outer loop
    vertex 94.60000000000002 0.599999 3.2499999999999996
    vertex 94.60000000000002 -11.499999999999998 21.75
    vertex 94.60000000000002 -11.499999999999998 3.2499999999999996
  endloop
endfacet
facet normal 1.0 -2.0536180069693617e-15 6.766919193950716e-16
  outer loop
    vertex 94.60000000000002 -11.499999999999998 21.75
    vertex 94.60000000000002 0.599999 3.2499999999999996
    vertex 94.59999999999998 -7.252609999999999 17.036499999999997
  endloop
endfacet
facet normal 1.0 -2.0536180069693617e-15 6.766919193950716e-16
  outer loop
    vertex 94.60000000000002 -11.499999999999998 21.75
    vertex 94.59999999999998 -7.252609999999999 17.036499999999997
    vertex 94.59999999999998 -7.359549999999999 17.263799999999996
  endloop
endfacet
facet normal 1.0 -2.0536180069693617e-15 6.766919193950716e-16
  outer loop
    vertex 94.60000000000002 -11.499999999999998 21.75
    vertex 94.59999999999998 -7.359549999999999 17.263799999999996
    vertex 94.59999999999998 -7.43717 17.5026
  endloop
endfacet
facet normal 1.0 -2.0536180069693617e-15 6.766919193950716e-16
  outer loop
    vertex 94.60000000000002 -11.499999999999998 21.75
    vertex 94.59999999999998 -7.43717 17.5026
    vertex 94.59999999999998 -7.499999999999999 17.75
  endloop
endfacet
facet normal 1.0 -2.0536180069693617e-15 6.766919193950716e-16
  outer loop
    vertex 94.59999999999998 -7.252609999999999 17.036499999999997
    vertex 94.60000000000002 0.599999 3.2499999999999996
    vertex 94.59999999999998 -7.118029999999999 16.824399999999997
  endloop
endfacet
facet normal 1.0 -2.0536180069693617e-15 6.766919193950716e-16
  outer loop
    vertex 94.59999999999998 -7.118029999999999 16.824399999999997
    vertex 94.60000000000002 0.599999 3.2499999999999996
    vertex 94.59999999999998 -6.957939999999999 16.630899999999997
  endloop
endfacet
facet normal 1.0 -2.0536180069693617e-15 6.766919193950716e-16
  outer loop
    vertex 94.59999999999998 -6.957939999999999 16.630899999999997
    vertex 94.60000000000002 0.599999 3.2499999999999996
    vertex 94.59999999999998 -6.774849999999999 16.459
  endloop
endfacet
facet normal 1.0 -2.0536180069693617e-15 6.766919193950716e-16
  outer loop
    vertex 94.59999999999998 -6.774849999999999 16.459
    vertex 94.60000000000002 0.599999 3.2499999999999996
    vertex 94.59999999999998 -6.571649999999999 16.3113
  endloop
endfacet
facet normal 1.0 -2.0536180069693617e-15 6.766919193950716e-16
  outer loop
    vertex 94.59999999999998 -6.571649999999999 16.3113
    vertex 94.60000000000002 0.599999 3.2499999999999996
    vertex 94.59999999999998 -6.35156 16.1903
  endloop
endfacet
facet normal 1.0 -2.0536180069693617e-15 6.766919193950716e-16
  outer loop
    vertex 94.59999999999998 -6.35156 16.1903
    vertex 94.60000000000002 0.599999 3.2499999999999996
    vertex 94.59999999999998 -6.11803 16.0979
  endloop
endfacet
facet normal 1.0 -2.0536180069693617e-15 6.766919193950716e-16
  outer loop
    vertex 94.59999999999998 -6.11803 16.0979
    vertex 94.60000000000002 0.599999 3.2499999999999996
    vertex 94.59999999999998 -5.87476 16.0354
  endloop
endfacet
facet normal 1.0 -2.0536180069693617e-15 6.766919193950716e-16
  outer loop
    vertex 94.59999999999998 -5.87476 16.0354
    vertex 94.60000000000002 0.599999 3.2499999999999996
    vertex 94.59999999999998 -5.625579999999999 16.0039
  endloop
endfacet
facet normal 1.0 -2.0536180069693617e-15 6.766919193950716e-16
  outer loop
    vertex 94.59999999999998 -5.625579999999999 16.0039
    vertex 94.60000000000002 0.599999 3.2499999999999996
    vertex 94.59999999999998 -5.374419999999999 16.0039
  endloop
endfacet
facet normal 1.0 -2.0536180069693617e-15 6.766919193950716e-16
  outer loop
    vertex 94.59999999999998 -5.374419999999999 16.0039
    vertex 94.60000000000002 0.599999 3.2499999999999996
    vertex 94.59999999999998 -5.125239999999999 16.0354
  endloop
endfacet
facet normal 1.0 -2.0536180069693617e-15 6.766919193950716e-16
  outer loop
    vertex 94.59999999999998 -5.125239999999999 16.0354
    vertex 94.60000000000002 0.599999 3.2499999999999996
    vertex 94.59999999999998 -4.88197 16.0979
  endloop
endfacet
facet normal 1.0 -2.0536180069693617e-15 6.766919193950716e-16
  outer loop
    vertex 94.59999999999998 -4.88197 16.0979
    vertex 94.60000000000002 0.599999 3.2499999999999996
    vertex 94.59999999999998 -4.64844 16.1903
  endloop
endfacet
facet normal 1.0 -2.0536180069693617e-15 6.766919193950716e-16
  outer loop
    vertex 94.59999999999998 -4.64844 16.1903
    vertex 94.60000000000002 0.599999 3.2499999999999996
    vertex 94.59999999999998 -4.42835 16.3113
  endloop
endfacet
facet normal 1.0 -2.0536180069693617e-15 6.766919193950716e-16
  outer loop
    vertex 94.59999999999998 -4.42835 16.3113
    vertex 94.60000000000002 0.599999 3.2499999999999996
    vertex 94.59999999999998 -4.225149999999999 16.459
  endloop
endfacet
facet normal 1.0 -2.0536180069693617e-15 6.766919193950716e-16
  outer loop
    vertex 94.59999999999998 -4.225149999999999 16.459
    vertex 94.60000000000002 0.599999 3.2499999999999996
    vertex 94.60000000000002 -4.042059999999999 16.630899999999997
  endloop
endfacet
facet normal 1.0 -2.0536180069693617e-15 6.766919193950716e-16
  outer loop
    vertex 94.60000000000002 -4.042059999999999 16.630899999999997
    vertex 94.60000000000002 0.599999 3.2499999999999996
    vertex 94.59999999999998 -3.8819699999999995 16.824399999999997
  endloop
endfacet
facet normal 1.0 -2.0536180069693617e-15 6.766919193950716e-16
  outer loop
    vertex 94.59999999999998 -3.8819699999999995 16.824399999999997
    vertex 94.60000000000002 0.599999 3.2499999999999996
    vertex 94.59999999999998 -3.74739 17.036499999999997
  endloop
endfacet
facet normal 1.0 -2.0536180069693617e-15 6.766919193950716e-16
  outer loop
    vertex 94.59999999999998 -3.74739 17.036499999999997
    vertex 94.60000000000002 0.599999 3.2499999999999996
    vertex 94.59999999999998 -3.64045 17.263799999999996
  endloop
endfacet
facet normal 1.0 -2.0536180069693617e-15 6.766919193950716e-16
  outer loop
    vertex 94.59999999999998 -3.64045 17.263799999999996
    vertex 94.60000000000002 0.599999 3.2499999999999996
    vertex 94.59999999999998 -3.5628299999999995 17.5026
  endloop
endfacet
facet normal 1.0 -2.0536180069693617e-15 6.766919193950716e-16
  outer loop
    vertex 94.59999999999998 -3.5628299999999995 17.5026
    vertex 94.60000000000002 0.599999 3.2499999999999996
    vertex 94.59999999999998 -3.5 17.75
  endloop
endfacet
facet normal 1.0 -2.0536180069693617e-15 6.766919193950716e-16
  outer loop
    vertex 94.59999999999998 -3.5 17.75
    vertex 94.60000000000002 0.599999 3.2499999999999996
    vertex 94.60000000000002 -3.5 21.75
  endloop
endfacet
facet normal 1.0 -2.0536180069693617e-15 6.766919193950716e-16
  outer loop
    vertex 94.60000000000002 -3.5 21.75
    vertex 94.60000000000002 0.599999 3.2499999999999996
    vertex 94.60000000000002 0.599999 21.75
  endloop
endfacet
facet normal 1.0 -2.0536180069693617e-15 6.766919193950716e-16
  outer loop
    vertex 94.60000000000002 -7.499999999999999 21.75
    vertex 94.60000000000002 -11.499999999999998 21.75
    vertex 94.59999999999998 -7.499999999999999 17.75
  endloop
endfacet
endsolid pc-bracket
